<svg id="SvgjsSvg1011" width="288" height="288" xmlns="http://www.w3.org/2000/svg" version="1.1" xmlns:xlink="http://www.w3.org/1999/xlink" xmlns:svgjs="http://svgjs.com/svgjs"><defs id="SvgjsDefs1012"></defs><g id="SvgjsG1013"><svg xmlns="http://www.w3.org/2000/svg" width="288" height="288" viewBox="0 0 511.999 511.999"><path d="m144.348 510.447c6.44 3.153 14.009 1.357 18.369-4.072l240-301c3.604-4.512 4.292-10.679 1.802-15.879-2.505-5.186-7.749-8.496-13.521-8.496h-95.728l79.146-159.291c2.329-4.644 2.08-10.166-.659-14.59s-7.558-7.119-12.758-7.119h-180c-6.885 0-12.876 4.688-14.546 11.367l-60 241c-1.128 4.482-.117 9.229 2.725 12.861 2.842 3.647 7.207 5.771 11.821 5.771h70.781l-55.327 222.367c-1.714 6.842 1.567 13.947 7.895 17.081z" fill="#f98a1a" class="color000 svgShape"></path></svg></g></svg>