<svg id="SvgjsSvg1001" width="288" height="288" xmlns="http://www.w3.org/2000/svg" version="1.1" xmlns:xlink="http://www.w3.org/1999/xlink" xmlns:svgjs="http://svgjs.com/svgjs"><defs id="SvgjsDefs1002"></defs><g id="SvgjsG1008" transform="matrix(0.9167,0,0,0.9167,11.995200000000011,11.995200000000011)"><svg xmlns="http://www.w3.org/2000/svg" width="288" height="288" enable-background="new 0 0 24 24" viewBox="0 0 24 24"><path d="m17.5 24c-3.584 0-6.5-2.916-6.5-6.5s2.916-6.5 6.5-6.5 6.5 2.916 6.5 6.5-2.916 6.5-6.5 6.5zm0-12c-3.033 0-5.5 2.467-5.5 5.5s2.467 5.5 5.5 5.5 5.5-2.467 5.5-5.5-2.467-5.5-5.5-5.5z" fill="#72b747" class="color000 svgShape"></path><path d="M17.5 20c-.276 0-.5-.224-.5-.5v-.263c0-.96.505-1.881 1.386-2.526.39-.286.614-.728.614-1.211 0-.827-.673-1.5-1.5-1.5s-1.5.673-1.5 1.5c0 .276-.224.5-.5.5s-.5-.224-.5-.5c0-1.378 1.122-2.5 2.5-2.5s2.5 1.122 2.5 2.5c0 .793-.382 1.547-1.023 2.018-.365.267-.977.845-.977 1.719v.263c0 .276-.224.5-.5.5zM17.5 22c-.06 0-.13-.01-.19-.04-.06-.02-.12-.06-.16-.11-.1-.09-.15-.22-.15-.35s.05-.26.15-.35c.04-.05.1-.09.16-.11.18-.08.4-.03.54.11.1.09.15.22.15.35s-.05.26-.15.35c-.09.1-.22.15-.35.15z" fill="#72b747" class="color000 svgShape"></path><path d="m9.5 21h-8c-.827 0-1.5-.673-1.5-1.5v-18c0-.827.673-1.5 1.5-1.5h18c.827 0 1.5.673 1.5 1.5v8c0 .276-.224.5-.5.5s-.5-.224-.5-.5v-8c0-.276-.224-.5-.5-.5h-18c-.276 0-.5.224-.5.5v18c0 .276.224.5.5.5h8c.276 0 .5.224.5.5s-.224.5-.5.5z" fill="#72b747" class="color000 svgShape"></path><path d="m14.5 9c-.106 0-.212-.034-.3-.1l-3.7-2.775-3.7 2.775c-.151.115-.354.131-.524.047-.169-.085-.276-.258-.276-.447v-8c0-.276.224-.5.5-.5h8c.276 0 .5.224.5.5v8c0 .189-.107.362-.276.447-.071.035-.148.053-.224.053zm-4-4c.105 0 .211.033.3.1l3.2 2.4v-6.5h-7v6.5l3.2-2.4c.089-.067.195-.1.3-.1z" fill="#72b747" class="color000 svgShape"></path></svg></g></svg>